<svg width="1280" height="640" viewBox="0 0 1280 640" fill="none" xmlns="http://www.w3.org/2000/svg">
  <rect width="1280" height="640" fill="#050505"/>
  <rect width="1280" height="640" fill="url(#bg)"/>
  <g opacity="0.16" stroke="#E8000D">
    <circle cx="650" cy="320" r="120"/>
    <circle cx="650" cy="320" r="220"/>
    <circle cx="650" cy="320" r="340"/>
    <path d="M650 320L650 0"/>
    <path d="M650 320L1040 80"/>
    <path d="M650 320L1230 220"/>
    <path d="M650 320L1170 520"/>
    <path d="M650 320L910 640"/>
    <path d="M650 320L390 640"/>
    <path d="M650 320L130 520"/>
    <path d="M650 320L70 220"/>
    <path d="M650 320L260 80"/>
  </g>
  <text x="84" y="92" fill="#F5F0E8" font-family="'Bebas Neue', Arial, sans-serif" font-size="34" letter-spacing="6">SNAP<tspan fill="#E8000D">LINK</tspan></text>
  <text x="86" y="225" fill="none" stroke="#F5F0E8" stroke-width="3.2" font-family="'Anton', Arial, sans-serif" font-size="126" letter-spacing="-2">SNAP.</text>
  <text x="86" y="336" fill="#E8000D" font-family="'Anton', Arial, sans-serif" font-size="126" letter-spacing="-2">SCAN.</text>
  <text x="86" y="447" fill="none" stroke="#F5F0E8" stroke-width="3.2" font-family="'Anton', Arial, sans-serif" font-size="126" letter-spacing="-2">SHORTEN.</text>
  <text x="90" y="505" fill="#F5F0E8" fill-opacity="0.76" font-family="'DM Sans', Arial, sans-serif" font-size="25">
    Cinematic URL shortener with QR code generation, click tracking, custom aliases, and a clean REST API.
  </text>
  <rect x="808.5" y="116.5" width="355" height="405" fill="rgba(255,255,255,0.03)" stroke="rgba(245,240,232,0.12)"/>
  <text x="842" y="162" fill="#F5F0E8" font-family="'Anton', Arial, sans-serif" font-size="34">RECENT LINKS</text>
  <text x="842" y="191" fill="#F5F0E8" fill-opacity="0.55" font-family="'DM Sans', Arial, sans-serif" font-size="16">Alias, QR, click trail, last visit.</text>
  <rect x="842" y="225" width="288" height="124" fill="rgba(255,255,255,0.035)" stroke="rgba(245,240,232,0.1)"/>
  <text x="864" y="262" fill="#F5F0E8" font-family="'Bebas Neue', Arial, sans-serif" font-size="32" letter-spacing="2">/OPENAI</text>
  <text x="864" y="288" fill="#F5F0E8" fill-opacity="0.85" font-family="'DM Sans', Arial, sans-serif" font-size="16">https://snaplink-demo.onrender.com/openai</text>
  <text x="864" y="318" fill="#F5F0E8" fill-opacity="0.5" font-family="'DM Sans', Arial, sans-serif" font-size="14">redirect + analytics + QR download</text>
  <rect x="1036" y="246" width="74" height="74" fill="#F5F0E8"/>
  <g fill="#050505">
    <rect x="1046" y="256" width="8" height="8"/>
    <rect x="1056" y="256" width="8" height="8"/>
    <rect x="1066" y="256" width="8" height="8"/>
    <rect x="1088" y="256" width="8" height="8"/>
    <rect x="1046" y="266" width="8" height="8"/>
    <rect x="1066" y="266" width="8" height="8"/>
    <rect x="1088" y="266" width="8" height="8"/>
    <rect x="1046" y="276" width="8" height="8"/>
    <rect x="1056" y="276" width="8" height="8"/>
    <rect x="1088" y="276" width="8" height="8"/>
    <rect x="1078" y="286" width="8" height="8"/>
    <rect x="1098" y="286" width="8" height="8"/>
    <rect x="1046" y="296" width="8" height="8"/>
    <rect x="1066" y="296" width="8" height="8"/>
    <rect x="1088" y="296" width="8" height="8"/>
    <rect x="1046" y="306" width="8" height="8"/>
    <rect x="1056" y="306" width="8" height="8"/>
    <rect x="1078" y="306" width="8" height="8"/>
    <rect x="1098" y="306" width="8" height="8"/>
  </g>
  <rect x="842" y="386" width="86" height="64" fill="rgba(255,255,255,0.035)" stroke="rgba(245,240,232,0.1)"/>
  <rect x="943" y="386" width="86" height="64" fill="rgba(255,255,255,0.035)" stroke="rgba(245,240,232,0.1)"/>
  <rect x="1044" y="386" width="86" height="64" fill="rgba(255,255,255,0.035)" stroke="rgba(245,240,232,0.1)"/>
  <text x="858" y="410" fill="#F5F0E8" fill-opacity="0.48" font-family="'DM Sans', Arial, sans-serif" font-size="12" letter-spacing="2">CLICKS</text>
  <text x="957" y="410" fill="#F5F0E8" fill-opacity="0.48" font-family="'DM Sans', Arial, sans-serif" font-size="12" letter-spacing="2">CREATED</text>
  <text x="1058" y="410" fill="#F5F0E8" fill-opacity="0.48" font-family="'DM Sans', Arial, sans-serif" font-size="12" letter-spacing="2">QR</text>
  <text x="858" y="438" fill="#F5F0E8" font-family="'DM Sans', Arial, sans-serif" font-size="21" font-weight="700">142</text>
  <text x="957" y="438" fill="#F5F0E8" font-family="'DM Sans', Arial, sans-serif" font-size="21" font-weight="700">today</text>
  <text x="1058" y="438" fill="#E8000D" font-family="'DM Sans', Arial, sans-serif" font-size="21" font-weight="700">live</text>
  <defs>
    <linearGradient id="bg" x1="640" y1="0" x2="640" y2="640" gradientUnits="userSpaceOnUse">
      <stop stop-color="#0A0A0A"/>
      <stop offset="1" stop-color="#050505"/>
    </linearGradient>
  </defs>
</svg>
